<svg width="192" height="36" viewBox="0 0 192 36" fill="none" xmlns="http://www.w3.org/2000/svg">
<g id="Logo/Amarelo">
<path id="BB Logo" fill-rule="evenodd" clip-rule="evenodd" d="M180.988 12.4564L179.368 11.343L187.036 6.13997L182.24 2.94511L180.031 4.43225L181.8 5.62114L177.817 8.29693L174.503 6.0664L182.463 0.641602L190.426 6.0664L180.988 12.4564ZM183.941 5.09927L185.563 6.13997L177.966 11.343L182.684 14.6123L184.898 13.0528L183.129 11.9369L187.11 9.26266L190.5 11.4918L182.389 16.842L174.503 11.4918L183.941 5.09927ZM177.744 14.6876L176.124 13.5733L174.429 14.763V16.9165L177.744 14.6876ZM187.256 2.87154L188.953 4.06101L190.5 2.94511V0.715282L187.256 2.87154Z" fill="#465EFF"/>
<path id="Lettering" fill-rule="evenodd" clip-rule="evenodd" d="M130.122 0H123.145V35.1919H138.221V28.8739H130.122V16.4609H139.57V10.8249H130.122V0ZM161.435 27.5628C162.966 26.0711 163.732 24.1389 163.732 21.7669C163.732 19.3945 162.966 17.4623 161.435 15.9706C159.903 14.479 158.158 13.7335 156.199 13.7335C154.169 13.7335 152.379 14.4703 150.829 15.9438C149.28 17.4173 148.505 19.3586 148.505 21.7669C148.505 24.1748 149.28 26.1157 150.829 27.5896C152.379 29.0628 154.169 29.8003 156.199 29.8003C158.158 29.8003 159.903 29.0537 161.435 27.5628ZM166.377 11.6037C169.173 14.2455 170.571 17.6331 170.571 21.7669C170.571 25.9003 169.173 29.2879 166.377 31.9297C163.581 34.5711 160.189 35.892 156.199 35.892C152.138 35.892 148.701 34.5711 145.887 31.9297C143.073 29.2879 141.666 25.9003 141.666 21.7669C141.666 17.6331 143.073 14.2455 145.887 11.6037C148.701 8.96228 152.138 7.64067 156.199 7.64067C160.189 7.64067 163.581 8.96228 166.377 11.6037ZM110.454 21.7669C110.454 24.1389 109.689 26.0711 108.157 27.5628C106.626 29.0537 104.88 29.8003 102.921 29.8003C100.891 29.8003 99.1009 29.0628 97.5516 27.5896C96.0022 26.1157 95.2275 24.1748 95.2275 21.7669C95.2275 19.3586 96.0022 17.4173 97.5516 15.9438C99.1009 14.4703 100.891 13.7335 102.921 13.7335C104.88 13.7335 106.626 14.479 108.157 15.9706C109.689 17.4623 110.454 19.3945 110.454 21.7669ZM117.294 21.7669C117.294 17.6331 115.895 14.2455 113.099 11.6037C110.304 8.96228 106.911 7.64067 102.921 7.64067C98.8606 7.64067 95.4233 8.96228 92.6092 11.6037C89.7957 14.2455 88.3883 17.6331 88.3883 21.7669C88.3883 25.9003 89.7957 29.2879 92.6092 31.9297C95.4233 34.5711 98.8606 35.892 102.921 35.892C106.911 35.892 110.304 34.5711 113.099 31.9297C115.895 29.2879 117.294 25.9003 117.294 21.7669ZM85.5808 8.28828H68.9523V35.1908H76.0046V14.9732H85.5808V8.28828ZM59.6842 11.55C62.3014 14.2635 63.6111 17.6689 63.6111 21.7668C63.6111 25.8647 62.3111 29.2603 59.7104 31.9565C57.1104 34.6526 54.0472 36 50.5205 36C47.0301 36 44.0912 35.0297 41.7047 33.0888V35.1907H34.6523V0.000616391H41.7047V10.4441C44.056 8.46801 46.9945 7.47961 50.5205 7.47961C54.0109 7.47961 57.0658 8.83603 59.6842 11.55ZM54.6616 27.6167C56.0684 26.161 56.7719 24.2106 56.7719 21.7668C56.7719 19.3223 56.0684 17.3633 54.6616 15.8897C53.2546 14.4162 51.4648 13.6794 49.2916 13.6794C47.2971 13.6794 45.5343 14.4343 44.0025 15.9437C42.4711 17.4532 41.7047 19.3948 41.7047 21.7668C41.7047 24.1388 42.4711 26.0714 44.0025 27.5627C45.5343 29.0536 47.2971 29.8002 49.2916 29.8002C51.4648 29.8002 53.2546 29.0718 54.6616 27.6167Z" fill="#465EFF"/>
<path id="Leaf" fill-rule="evenodd" clip-rule="evenodd" d="M15.4782 25.8446H19.9444V0.117432H15.6046V14.2764C14.6887 12.8699 13.6383 11.5587 12.469 10.3675V0.117432H8.33401V6.97628C7.33537 6.32102 6.28814 5.73672 5.19806 5.22882V0.117432H0.857178V8.06048C8.68249 10.4577 14.5653 17.4061 15.4782 25.8446ZM8.19955 25.8446H12.3172C11.463 19.1659 6.93883 13.6347 0.857358 11.3975V15.8573C4.73492 17.6931 7.56883 21.4132 8.19955 25.8446ZM27.4185 25.8447H23.0801V0.117468H27.4185V25.8447ZM0.857358 19.4861V25.8447H5.0204C4.52 23.2069 2.9846 20.9367 0.857358 19.4861ZM27.42 35.1169H0.857178V29.351H27.42V35.1169Z" fill="#38DC6A"/>
</g>
</svg>
