<svg xmlns="http://www.w3.org/2000/svg" width="771" height="187" viewBox="0 0 771 187" fill="none"><path fill-rule="evenodd" clip-rule="evenodd" d="M148.38 0V140.65H175.4V81.72L155.82 70.32H203.58C203.58 70.32 215.34 69.51 215.34 79.49V140.64H241.17V78.89C241.17 78.89 242.44 48.34 212.6 48.34H174.82V7.98L148.38 0Z" fill="#181818"></path><path fill-rule="evenodd" clip-rule="evenodd" d="M599.05 71.17L580.85 81.75V117.07H549.56C549.56 117.07 540.66 117.44 540.66 104.87V77.55C540.66 77.55 540.98 69.62 555.42 69.62H599.05V71.17ZM606.78 47.29V141H539.81C539.81 141 514.78 139.48 514.78 107.87V71.9C514.78 71.9 518.17 47.29 544.3 47.29H606.78Z" fill="#181818"></path><path fill-rule="evenodd" clip-rule="evenodd" d="M623.48 141H649.71V80.95L631.02 70.55H676.74C676.74 70.55 689.41 70.07 689.41 84.51V141.01H766.72L715.4 118.1V75.09C715.4 75.09 713.7 47.31 686.75 47.31H623.48V141.02V141Z" fill="#181818"></path><path fill-rule="evenodd" clip-rule="evenodd" d="M109.56 75.6H132.23V65.82C132.23 65.82 132.41 47.18 104.36 47.18H0V49.08L39.2 65.46V87.87C39.2 87.87 41.84 103.32 62.95 103.32H104.21C104.21 103.32 109.19 103.08 109.19 107.98V114.72C109.19 114.72 109.03 118.57 103.01 118.57H68.66C68.66 118.57 63.88 119.05 63.88 116.02V111.48H39.69V120.93C39.69 120.93 40.62 139.55 62.22 139.55H110.94C110.94 139.55 132.23 137.78 132.23 118.94V99.55C132.23 99.55 132.18 84.69 109.1 84.69H66.12C66.12 84.69 63.17 84.7 63.17 81.22V77.21L48.13 70.46V68.4H103.65C103.65 68.4 109.55 68.21 109.55 72.35L109.58 75.6H109.56Z" fill="#181818"></path><path d="M366.65 85.74L366.68 85.79C366.68 85.79 366.79 85.68 366.65 85.74Z" fill="#363435"></path><path fill-rule="evenodd" clip-rule="evenodd" d="M375.99 30.22L397 9.21001C359.5 -1.67999 290.19 7.64001 250.07 19.44L255.55 84.34C256.83 99.49 256.97 117.46 262.58 131.37C268.05 144.93 280.71 152.82 290.91 158.88C301.11 164.94 309.67 170.34 309.67 170.34C309.67 170.34 293.41 152.84 288.46 138C283.51 123.16 283.52 110.93 280.45 77.83L276.84 38.22C304.44 30.66 348.28 23.63 375.99 30.23" fill="#FCCF2A"></path><path d="M467.97 81.31L514.34 22.3H480.97L445.49 67.97H439.52L441.98 18.44L407.2 11.06L385.95 32.31L413.88 38.81L412.12 100.63C412.12 100.63 411.74 114.19 407.1 122.88C403.42 128.76 395.08 134.05 389.73 137.02L384.07 139.94L357.21 153.79L345.74 158.94C345.74 158.94 323.26 145.36 314.83 124.05C314.83 124.05 304.53 99.46 317.17 75.81C317.17 75.81 333.51 45.61 377.11 56.06C375.94 56.61 370.55 59.33 364.99 64.9C364.99 64.9 371.57 64.9 374.52 66.17C374.52 66.17 367.26 70.05 367.77 78.07C367.77 78.07 368.08 81.78 368.87 84.37C368.87 84.37 370.33 89.77 368.31 91.18C368.31 91.18 366.51 92.97 366.13 90.69C366.13 90.69 365.83 88.41 363.35 89.47C363.35 89.47 361.62 91.16 360.4 90.31C360.4 90.31 359.09 88.96 356.81 90.31C356.81 90.31 352.93 90.39 350.65 86.51C350.65 86.51 347.87 80.73 344.36 82.16C344.36 82.16 340.52 83.68 342.55 88.74C342.55 88.74 344.32 92.77 347.06 94.87L347.48 95.2C347.48 95.2 344.53 95.22 343.64 94.87C343.64 94.87 345.33 96.38 348.11 96.67C348.11 96.67 351.59 97.32 354.44 94.48C354.65 94.27 356.63 91.99 359.5 93.55C359.5 93.55 360.85 94.73 361.69 93.89C361.69 93.89 362.74 93.01 363.63 93.01C363.63 93.01 364.68 93.18 365.02 94.06C365.02 94.06 365.74 96.04 362.7 98.19C362.7 98.19 361.33 99.69 359.03 97.39C359.03 97.39 356.52 94.46 354.52 96.46C354.52 96.46 353.74 97.28 354.22 97.77C354.22 97.77 354.68 98.7 356.2 98.45C356.41 98.24 357.53 97.8 358.73 99L359.93 100.2C359.93 100.2 361.55 101.11 362.36 100.31C362.36 100.31 365.36 97.99 368.22 100.27C368.22 100.27 370.25 101.58 371.93 105.5C371.93 105.5 369.61 104.11 368.22 104.82C368.22 104.82 371.22 104.78 372.1 106.59C372.1 106.59 373.28 108.74 370.24 107.86C370.24 107.86 359.45 103.61 345.67 112.61C345.67 112.61 341.34 105.92 352.81 100.23C352.81 100.23 343.92 102.99 340.1 100.96C340.1 100.96 330.93 96.8 339.03 84.03C339.03 84.03 336.02 84.68 334.53 86.17C334.53 86.17 336.11 80.71 341.39 77.96C341.39 77.96 347.3 75.54 350.78 79.03C350.78 79.03 352.47 80.32 353.14 83.31C353.14 83.31 354.49 80.44 355.9 82.41C355.9 82.41 357.87 84.77 358.43 88.09C358.43 88.09 360.51 85.5 361.97 85.5C361.97 85.5 361.41 86.23 361.18 87.08C361.18 87.08 363.99 87.36 365.51 86.4C366.21 85.96 366.51 85.8 366.63 85.76C366.42 85.42 365.25 83.46 364.95 81.12C364.95 81.12 362.73 73.55 367.88 68.41L368.36 67.93C368.36 67.93 362.99 67 359.73 67.93C359.73 67.93 360.91 63.06 365.81 59.35C365.81 59.35 349.61 53.78 336.11 62.89C336.11 62.89 320.5 71.67 316.37 87.78C316.37 87.78 314.07 94.42 314.4 102.82C314.4 102.82 314.4 103.63 314.55 105.05C314.81 107.74 315.36 110.55 316.35 113.35C319.31 122.7 326.75 136.51 345.48 147.25C345.48 147.25 398.87 130.39 401.22 103.46L403.56 76.53L404.73 46.79C404.73 46.79 353.8 28.06 288.81 46.79C288.81 46.79 287.39 88.54 293.07 120.58C293.97 128.39 295.4 136.03 298.1 142.72C301.35 150.79 307.16 156.84 313.47 161.7C314.29 162.42 315.14 163.15 316.06 163.91C316.28 164.09 316.49 164.27 316.72 164.44C319.94 167.05 323.76 169.88 328.32 172.9C340.613 181.867 346.763 186.357 346.77 186.37L402.27 158.62C402.27 158.62 433.88 145.96 435.99 112.42L438.1 92.58H446.18L481.66 137.89H517.14L467.96 81.34L467.97 81.31ZM370.92 113.12L369.27 112.4C369.27 112.4 367.79 111.68 366.99 111.51C366.99 111.51 371.04 113.96 371.21 115.94C371.34 115.81 372.5 121.37 365.3 126.15C365.3 126.15 361.14 128.74 358.77 125.47C358.77 125.47 355.93 128.14 355.31 124.54C355.31 124.54 351.51 125.41 352.92 122.71C352.92 122.71 350.16 123.95 349.77 121.36C349.77 121.08 350.02 120.26 350.95 119.33C350.95 118.99 346.56 120.23 345.93 116.22C345.93 116.22 353.9 108.5 361.08 108.92C361.08 108.92 366.18 108.92 370.49 111.07C370.49 111.07 371.71 111.53 372.14 112.38C372.14 112.38 372.56 113.81 370.92 113.1V113.12Z" fill="#181818"></path><path d="M747.11 32.68C734.27 32.68 723.85 43.09 723.85 55.94C723.85 68.79 734.26 79.2 747.11 79.2C759.96 79.2 770.37 68.79 770.37 55.94C770.37 43.09 759.96 32.68 747.11 32.68ZM747.11 74.54C736.83 74.54 728.5 66.21 728.5 55.93C728.5 45.65 736.83 37.32 747.11 37.32C757.39 37.32 765.72 45.65 765.72 55.93C765.72 66.21 757.39 74.54 747.11 74.54ZM747.69 58.89H744.34V66.4H740.13V45.96H747.71C749.7 45.84 751.67 46.4 753.29 47.56C754.65 48.71 755.37 50.44 755.24 52.21C755.29 53.44 754.97 54.65 754.33 55.7C753.67 56.74 752.72 57.55 751.59 58.03L756.01 66.38V66.61H751.5L747.69 59.1M744.34 55.7H747.74C748.63 55.75 749.5 55.46 750.18 54.89C750.8 54.28 751.12 53.43 751.04 52.56C751.11 51.7 750.82 50.86 750.23 50.23C749.54 49.62 748.63 49.33 747.72 49.42H744.35V55.7H744.34Z" fill="#181818"></path></svg>