<svg width="120" height="167" xmlns="http://www.w3.org/2000/svg" xml:space="preserve" version="1.1">
 <defs>
  <linearGradient y2="0.52315" x2="0.94112" y1="0.41775" x1="0.04472" id="SVGID_1_">
   <stop stop-color="#0288F7" offset="0"/>
   <stop stop-color="#2EE2BD" offset="1"/>
  </linearGradient>
  <linearGradient y2="0.2086" x2="0.31224" y1="0.91381" x1="0.93444" id="SVGID_2_">
   <stop stop-color="#CB1918" offset="0"/>
   <stop stop-color="#A2183D" offset="0.388"/>
   <stop stop-color="#902869" offset="0.749"/>
   <stop stop-color="#73358A" offset="1"/>
  </linearGradient>
  <linearGradient y2="0.29849" x2="0.30255" y1="0.90417" x1="0.79392" id="SVGID_3_">
   <stop stop-color="#CB1918" offset="0"/>
   <stop stop-color="#A2183D" offset="0.388"/>
   <stop stop-color="#902869" offset="0.749"/>
   <stop stop-color="#73358A" offset="1"/>
  </linearGradient>
  <linearGradient y2="-0.96896" x2="-0.77085" y1="1.44109" x1="1.23613" id="SVGID_4_">
   <stop stop-color="#CB1918" offset="0"/>
   <stop stop-color="#A2183D" offset="0.388"/>
   <stop stop-color="#902869" offset="0.749"/>
   <stop stop-color="#73358A" offset="1"/>
  </linearGradient>
  <linearGradient y2="0.65311" x2="0.24558" y1="0.20089" x1="0.7396" id="SVGID_5_">
   <stop stop-color="#ADD816" offset="0"/>
   <stop stop-color="#DBD704" offset="1"/>
  </linearGradient>
  <linearGradient y2="-1.7124" x2="-1.50761" y1="0.7981" x1="0.67699" id="SVGID_6_">
   <stop stop-color="#E1282B" offset="0"/>
   <stop stop-color="#E3402A" offset="0.388"/>
   <stop stop-color="#E76226" offset="0.702"/>
   <stop stop-color="#F19A0A" offset="1"/>
  </linearGradient>
  <linearGradient y2="-3.97991" x2="-2.69008" y1="0.56191" x1="0.51336" id="SVGID_7_">
   <stop stop-color="#E1282B" offset="0"/>
   <stop stop-color="#E3402A" offset="0.388"/>
   <stop stop-color="#E76226" offset="0.702"/>
   <stop stop-color="#F19A0A" offset="1"/>
  </linearGradient>
  <linearGradient y2="0.19811" x2="0.01641" y1="0.9636" x1="1.00752" id="SVGID_8_">
   <stop stop-color="#E1282B" offset="0"/>
   <stop stop-color="#E3402A" offset="0.388"/>
   <stop stop-color="#E76226" offset="0.702"/>
   <stop stop-color="#F19A0A" offset="1"/>
  </linearGradient>
  <linearGradient y2="-0.11931" x2="-0.16963" y1="1.19861" x1="1.10456" id="SVGID_9_">
   <stop stop-color="#E1282B" offset="0"/>
   <stop stop-color="#E3402A" offset="0.388"/>
   <stop stop-color="#E76226" offset="0.702"/>
   <stop stop-color="#F19A0A" offset="1"/>
  </linearGradient>
  <linearGradient y2="-0.66238" x2="-0.41077" y1="1.47468" x1="1.17487" id="SVGID_10_">
   <stop stop-color="#E1282B" offset="0"/>
   <stop stop-color="#E3402A" offset="0.388"/>
   <stop stop-color="#E76226" offset="0.702"/>
   <stop stop-color="#F19A0A" offset="1"/>
  </linearGradient>
 </defs>
 <g>
  <title>Layer 1</title>
  <g stroke="null" id="svg_21">
   <g stroke="null" id="svg_1">
    <path stroke="null" id="svg_2" fill="#2AC64B" d="m5.91671,57.05333c-2.02445,-0.92203 -3.77831,-1.63359 -5.21146,-2.16977c-0.30066,-2.24995 -0.52115,-4.50491 -0.65644,-6.76989c-0.11024,-1.8641 -0.04009,-3.70315 0.1804,-5.50711c1.21768,0.20044 2.94147,0.5011 5.08619,0.91702c-0.21046,2.56063 -0.23051,5.25656 0,8.10282c0.14532,1.819 0.34576,3.62798 0.60132,5.42694zm20.02405,11.821c-5.12127,-3.75827 -9.93185,-6.66967 -14.11104,-8.90459c-0.84686,-5.20645 -1.20766,-10.36781 -0.89196,-15.27861c3.8635,0.85187 8.43355,1.9543 13.45961,3.35237c-0.33073,6.56945 0.28563,13.63499 1.54339,20.83082l0,0zm52.59569,2.74103c-0.05011,0.56625 -0.11525,1.14251 -0.17539,1.71878c-6.99539,3.65304 -13.96071,8.57887 -20.21948,15.21848c-2.02445,2.14472 -3.86851,4.29946 -5.55722,6.44418c-1.89417,-2.39527 -3.91361,-4.8206 -6.05833,-7.25596c-0.96212,-1.08739 -1.92423,-2.14472 -2.89637,-3.17699c-1.60854,-10.7737 -2.63079,-21.40208 -2.82121,-31.36399c12.45239,4.41972 25.89697,10.41792 37.72799,18.41551z" class="st9"/>
    <path stroke="null" id="svg_3" fill="#008A5A" d="m7.44508,33.05555c-1.0473,3.17699 -1.80898,6.66466 -2.12968,10.46803c-2.14472,-0.41591 -3.86851,-0.71658 -5.08619,-0.91702c0.1353,-1.1375 0.34075,-2.25997 0.59631,-3.36741c1.52836,-1.64362 3.73822,-3.81339 6.61956,-6.1836z" class="st13"/>
    <path stroke="null" id="svg_4" fill="#009550" d="m31.81368,19.32534c-3.6831,6.75486 -6.63459,15.85989 -7.38124,28.00661c-0.01002,0.23552 -0.02506,0.47605 -0.03508,0.71157c-5.02606,-1.39808 -9.5911,-2.49549 -13.4546,-3.35237c0.00501,-0.16536 0.02004,-0.32071 0.03007,-0.48607c0.48106,-6.36901 2.36019,-12.21186 5.20144,-17.39827c4.39467,-2.71096 9.60112,-5.34676 15.6394,-7.48146z" class="st14"/>
    <path stroke="null" id="svg_5" fill="#00983E" d="m78.53645,71.61537c-11.83102,-7.99759 -25.2756,-13.99579 -37.72799,-18.41551c-0.24053,-11.8661 0.6815,-22.7751 3.1369,-31.81498c0.06514,-0.25055 0.1353,-0.49609 0.20545,-0.73662c9.87673,5.83784 22.74503,12.34716 34.96191,15.20344c1.06735,10.7737 0.74664,23.01563 -0.57627,35.76367l0,0z" class="st15"/>
    <path stroke="null" id="svg_6" fill="#009A37" d="m120.4737,48.11367c-0.30066,5.01102 -1.01724,9.97194 -2.12968,14.93285c-1.4081,0.05512 -3.03167,0.14532 -4.83063,0.30066c0.79174,-3.82341 1.37302,-7.73702 1.69373,-11.72078c1.07236,-13.4095 -3.26218,-23.62196 -8.2732,-30.75265c1.46823,0.41591 2.86129,0.82682 4.15915,1.2277c5.62738,7.1357 9.97194,16.30587 9.38063,26.01222zm-12.52255,15.87993c-3.92363,0.56123 -8.35337,1.43816 -13.02866,2.77611c1.07236,-6.7298 1.53838,-13.30427 1.16256,-19.43776c-0.85187,-13.98576 -4.64021,-23.93264 -9.09501,-30.91801c4.18921,0.69152 8.16296,1.50832 11.83102,2.3652c5.84786,6.90519 9.98697,15.52415 10.7286,25.43094c0.47104,6.31389 -0.20545,13.0487 -1.59852,19.78352z" class="st16"/>
    <path stroke="null" id="svg_7" fill="#00863F" d="m79.11272,35.8517c-12.21687,-2.86129 -25.08518,-9.37061 -34.96191,-15.20344c0.52115,-1.80898 1.10242,-3.45259 1.74384,-4.94588c1.80898,-0.31068 3.67308,-0.56123 5.5923,-0.75666c7.71697,-0.78673 15.42393,-0.71157 22.76007,-0.11024c0.86691,1.91421 1.65865,4.08398 2.33013,6.54941c1.19262,4.4097 2.02946,9.26538 2.53558,14.46682z" class="st12"/>
    <path stroke="null" id="svg_8" fill="#06CBF6" d="m26.37171,8.32114c-0.40589,0.25055 -13.52976,8.32832 -18.92663,24.7294c-2.88134,2.37021 -5.0912,4.545 -6.61455,6.1836c3.56785,-15.47404 17.80917,-28.11184 25.54118,-30.913zm8.30326,6.38404c-0.98717,1.40309 -1.94929,2.94147 -2.86129,4.62016c-6.03327,2.1347 -11.24473,4.77049 -15.6394,7.48647c3.3624,-6.16857 8.08779,-11.42513 13.41451,-15.5943c1.26278,0.90198 2.99158,2.09962 5.08619,3.48767z" class="st17"/>
    <path stroke="null" id="svg_9" fill="url(#SVGID_1_)" d="m111.09307,22.10145c-1.29785,-0.40088 -2.69092,-0.81179 -4.15915,-1.2277c-5.92303,-8.42854 -12.79314,-12.55762 -12.79314,-12.55762c4.55502,1.64863 11.38504,6.72479 16.95229,13.78532zm-12.27199,-3.32231c-3.66306,-0.85688 -7.6368,-1.67368 -11.82601,-2.3652c-7.51653,-11.80597 -16.9573,-15.15834 -17.41831,-15.31369c10.11725,2.02946 21.27179,8.26819 29.24433,17.67889zm-24.57406,-3.94367c-7.33614,-0.60633 -15.04309,-0.67649 -22.76007,0.11024c-1.91922,0.19543 -3.77831,0.44598 -5.5923,0.75666c5.42193,-12.77811 14.24133,-14.60713 14.24133,-14.60713l0.25055,0c0,0 8.41852,1.74384 13.86049,13.74022zm-23.29624,-13.73521c-0.43596,0.15033 -8.97474,3.182 -16.2758,13.60493c-2.0896,-1.38304 -3.82341,-2.58068 -5.08619,-3.48266c6.65464,-5.20144 14.26137,-8.69914 21.36199,-10.12227l0,0z" class="st0"/>
    <path stroke="null" id="svg_10" fill="#666565" d="m60.26125,166.92001l9.06494,0l3.35237,-14.63219l-24.83463,0l3.35237,14.63219l9.06494,0z" class="st11"/>
   </g>
   <path stroke="null" id="svg_11" fill="url(#SVGID_2_)" d="m26.03096,101.42594c1.74384,3.60293 3.4075,6.82 4.84065,9.50591c2.4554,4.59511 4.79054,8.50371 7.20084,12.06153c0.69653,-2.43536 1.56344,-5.00601 2.64582,-7.67188c-1.86911,-4.28442 -3.74323,-8.88955 -5.52716,-13.6851c-3.87853,-10.41792 -7.3211,-21.75285 -9.24534,-32.76207c-5.12127,-3.75326 -9.93185,-6.66967 -14.11104,-8.89958c2.39026,14.81759 8.68911,30.07616 14.19623,41.45118l0,0z" class="st1"/>
   <path stroke="null" id="svg_12" fill="url(#SVGID_3_)" d="m17.84295,101.24053c0.98717,1.72379 2.01443,3.45761 3.07677,5.20645c4.97595,8.15794 10.72359,15.69452 15.83984,21.81799c0.15033,-0.74163 0.32572,-1.50832 0.52115,-2.28503c-2.06955,-2.84626 -4.08899,-5.73261 -5.82782,-8.41351c-2.49048,-3.83343 -6.0934,-9.39066 -9.85167,-16.2307c-6.43415,-11.7308 -13.30427,-27.23992 -15.68951,-44.2774c-2.02445,-0.92203 -3.77831,-1.63359 -5.20645,-2.16977c2.05953,15.26859 7.90238,30.26157 17.1377,46.35196l0,0z" class="st2"/>
   <path stroke="null" id="svg_13" fill="url(#SVGID_4_)" d="m44.52664,90.25136c0.64642,3.85849 1.40309,7.77711 2.21988,11.65063c0.08018,0.37082 0.15534,0.73662 0.23552,1.10744c1.63359,-2.64081 3.49268,-5.32171 5.59731,-8.00761c-1.9543,-2.47043 -3.97374,-4.89076 -6.05833,-7.26097c-0.96212,-1.08739 -1.92423,-2.14472 -2.89637,-3.17198c0.28563,1.88916 0.58128,3.78332 0.90198,5.6825z" class="st3"/>
   <path stroke="null" id="svg_14" fill="#97CC1A" d="m113.50838,63.34718c-2.30507,11.19462 -6.364,21.56243 -10.6835,30.43194c0.87192,0.87693 1.72379,1.75386 2.55061,2.61575c6.15354,-11.44016 10.52816,-22.38424 12.96853,-33.34836c-1.41311,0.05512 -3.03167,0.14031 -4.83564,0.30066zm-18.58087,3.42253c-0.84686,5.34676 -2.06454,10.78873 -3.53778,16.1856c2.5456,2.29505 5.32672,4.8657 8.06274,7.5015c3.42253,-8.16797 6.61956,-17.32311 8.50371,-26.46321c-3.92864,0.56625 -8.35337,1.44317 -13.02866,2.77611l0,0z" class="st10"/>
   <path stroke="null" id="svg_15" fill="url(#SVGID_5_)" d="m58.14159,88.54761c-2.02445,2.14472 -3.86851,4.29946 -5.55722,6.44919c7.36119,9.30046 12.83323,18.14491 16.79695,25.54118c1.43816,-5.56224 2.93145,-11.72078 4.26939,-18.02966c0.86691,-4.06895 1.66366,-8.19302 2.34516,-12.25696c0.95711,-5.67248 1.75386,-11.33994 2.3652,-16.91721c-7.0004,3.65304 -13.96071,8.57386 -20.21948,15.21346zm44.68329,5.23151c-0.16536,0.34075 -0.33073,0.67649 -0.49609,1.01223c-4.88575,9.85668 -10.02205,17.7741 -13.26418,22.77009c-3.74323,5.76769 -8.78933,12.52255 -12.78813,17.68891c0.14532,0.38084 0.28563,0.73662 0.41591,1.07737c6.19362,-6.74484 15.42393,-17.61374 22.90538,-29.88073c1.87913,-3.08178 3.63299,-6.11345 5.2716,-9.11505c0.17037,-0.31068 0.34075,-0.62137 0.50611,-0.93706c-0.82682,-0.86691 -1.67869,-1.73882 -2.55061,-2.61575l0,0zm-11.43515,-10.82381l-0.19543,0.70154c-4.74544,17.13269 -11.97133,33.72919 -17.68891,45.16435c0.62137,1.35799 1.18761,2.62578 1.6837,3.78833c5.28162,-6.28382 9.63119,-12.64782 14.46181,-21.67768c2.65083,-4.97093 6.08839,-11.74584 9.37061,-19.45279l0.43095,-1.02225c-2.73602,-2.6358 -5.51714,-5.20645 -8.06274,-7.5015z" class="st4"/>
   <path stroke="null" id="svg_16" fill="url(#SVGID_6_)" d="m65.02674,143.734c3.85849,-3.9988 7.16075,-7.5466 10.16235,-11.12447c-0.49609,-1.16256 -1.05733,-2.42533 -1.6837,-3.78833c-4.04891,8.10783 -7.35117,13.61996 -8.47865,14.9128z" class="st5"/>
   <path stroke="null" id="svg_17" fill="url(#SVGID_7_)" d="m69.76716,143.49348c0.20545,-0.20044 2.94147,-2.83123 6.93024,-7.16576c-0.1353,-0.34075 -0.2706,-0.69653 -0.41591,-1.07737c-3.57787,4.63018 -6.30387,7.99258 -6.51433,8.24313z" class="st6"/>
   <path stroke="null" id="svg_18" fill="url(#SVGID_8_)" d="m46.98204,103.00441c4.56003,21.33192 10.81379,40.89496 10.81379,40.89496l4.93085,0c0,0 3.17198,-9.93686 6.65464,-23.3664c-3.96372,-7.39627 -9.43576,-16.23571 -16.79695,-25.54118c-2.10964,2.69092 -3.96873,5.37182 -5.60232,8.01263z" class="st7"/>
   <path stroke="null" id="svg_19" fill="url(#SVGID_9_)" d="m38.06744,122.99338c4.98597,7.40128 10.23752,13.28923 17.42333,20.74062c-1.67368,-1.91421 -8.15794,-13.184 -14.77751,-28.40749c-1.08238,2.66085 -1.94929,5.23151 -2.64582,7.66686l0,0z" class="st8"/>
   <path stroke="null" id="svg_20" fill="url(#SVGID_10_)" d="m36.75956,128.25997c7.52155,9.00481 13.6851,14.93285 14.0008,15.23351c-0.33073,-0.4109 -7.12066,-8.75927 -13.47965,-17.51854c-0.19042,0.77671 -0.3658,1.54339 -0.52115,2.28503z" class="st18"/>
  </g>
 </g>
</svg>