<svg version="1.1" id="Layer_1" xmlns="http://www.w3.org/2000/svg" xmlns:xlink="http://www.w3.org/1999/xlink" x="0px" y="0px"
	 width="100%" viewBox="0 0 100 100" enable-background="new 0 0 100 100" xml:space="preserve">

<path fill="#DD272F" opacity="1.000000" stroke="none" 
	d="
M61.887024,39.071320 
	C59.257305,47.654171 56.621902,56.235291 54.000000,64.820526 
	C52.433632,69.949501 50.888432,75.084930 49.280651,80.392647 
	C44.738091,79.079971 40.388493,78.062546 36.239239,76.509766 
	C34.506016,75.861130 33.001579,74.888885 34.476509,71.763153 
	C39.117680,61.927387 42.970982,51.720673 47.164745,41.672359 
	C48.151104,39.309036 49.276836,37.003880 50.896568,34.455017 
	C54.932137,35.849155 58.409580,37.460239 61.887024,39.071320 
z"/>
<path fill="#D52C33" opacity="1.000000" stroke="none" 
	d="
M52.466492,28.258089 
	C53.197025,25.556452 53.927559,22.854816 54.843349,19.468054 
	C59.646465,21.155548 64.250076,22.772949 68.963783,24.429031 
	C67.614464,28.031086 66.495605,31.017887 64.741440,34.341652 
	C60.459732,33.475227 56.777321,32.363857 53.206738,30.966709 
	C52.686371,30.763094 52.699970,29.194874 52.466492,28.258089 
z"/>

</svg>